<?xml version="1.0" standalone="no"?>
<!DOCTYPE svg PUBLIC "-//W3C//DTD SVG 20010904//EN"
 "http://www.w3.org/TR/2001/REC-SVG-20010904/DTD/svg10.dtd">
<svg version="1.0" xmlns="http://www.w3.org/2000/svg"
 width="1746.000000pt" height="524.000000pt" viewBox="0 0 1746.000000 524.000000"
 preserveAspectRatio="xMidYMid meet">
<metadata>
Created by potrace 1.15, written by Peter Selinger 2001-2017
</metadata>
<g transform="translate(0.000000,524.000000) scale(0.100000,-0.100000)"
fill="#000000" stroke="none">
<path d="M990 4503 c-46 -4 -83 -29 -101 -68 -15 -32 -35 -63 -50 -82 -9 -10
-31 -49 -49 -88 -19 -38 -39 -73 -44 -76 -5 -4 -6 -11 -2 -17 3 -6 -2 -17 -11
-24 -10 -7 -23 -24 -29 -38 -38 -85 -54 -112 -77 -138 -10 -10 -17 -23 -17
-29 0 -5 -9 -18 -20 -28 -11 -10 -20 -28 -20 -40 0 -12 -9 -30 -20 -40 -11
-10 -18 -20 -15 -23 3 -3 0 -11 -7 -19 -15 -18 -20 -51 -20 -133 0 -89 7 -132
26 -146 9 -6 16 -19 16 -28 0 -9 5 -16 10 -16 6 0 10 -9 10 -19 0 -10 6 -21
14 -24 8 -3 22 -23 32 -44 10 -21 30 -53 46 -71 15 -18 28 -40 29 -50 0 -9 9
-30 20 -47 10 -16 23 -40 28 -52 5 -11 14 -24 20 -27 5 -4 22 -32 37 -64 16
-31 40 -68 54 -82 14 -14 32 -44 39 -67 8 -23 27 -54 42 -69 16 -15 26 -30 24
-34 -3 -4 4 -15 15 -25 11 -10 20 -28 20 -40 0 -12 9 -30 20 -40 11 -10 20
-24 20 -30 0 -7 7 -18 15 -25 8 -7 29 -40 45 -74 38 -77 51 -97 73 -117 9 -9
17 -24 17 -33 0 -9 5 -16 10 -16 6 0 10 -9 10 -20 0 -11 5 -20 10 -20 6 0 10
-6 10 -14 0 -7 7 -19 15 -26 9 -7 25 -32 36 -54 39 -79 66 -127 83 -144 26
-30 20 -84 -19 -156 -19 -37 -35 -72 -35 -79 0 -7 -9 -19 -20 -27 -11 -8 -20
-21 -20 -30 0 -8 -9 -21 -20 -28 -11 -7 -20 -23 -20 -36 0 -13 -7 -29 -15 -36
-9 -7 -25 -32 -35 -55 -10 -23 -26 -47 -34 -54 -9 -8 -14 -17 -11 -21 3 -4 -2
-13 -9 -20 -8 -6 -18 -24 -21 -40 -3 -15 -15 -36 -26 -46 -10 -9 -19 -23 -19
-31 0 -7 -4 -13 -10 -13 -5 0 -10 -9 -10 -20 0 -11 -4 -20 -10 -20 -5 0 -10
-19 -10 -43 0 -24 -5 -48 -11 -54 -8 -8 -8 -13 0 -17 6 -4 11 -20 11 -35 0
-41 22 -81 46 -81 11 0 24 -4 30 -9 20 -20 420 -39 452 -22 11 6 113 11 238
11 203 1 223 3 266 23 26 12 48 27 48 33 0 6 7 17 15 24 9 7 30 42 47 77 17
36 37 67 44 70 8 3 14 14 14 24 0 10 5 19 11 19 6 0 9 7 5 15 -3 9 3 19 14 25
11 6 20 19 20 29 0 10 9 30 20 44 11 14 20 30 20 35 0 5 7 15 15 22 19 16 45
68 45 90 0 9 9 25 20 35 11 10 20 23 20 30 0 6 13 24 30 40 16 15 29 31 28 34
-1 3 4 19 10 34 7 16 12 33 12 38 0 5 7 12 15 15 8 4 15 15 15 25 0 10 5 19
10 19 6 0 10 6 10 13 0 7 8 22 18 33 10 10 30 44 45 75 15 32 34 62 42 69 8 7
13 16 10 20 -3 5 -1 11 5 15 5 3 19 25 31 48 30 61 44 85 62 105 10 10 17 22
17 26 0 9 26 36 34 36 10 0 6 -89 -4 -95 -6 -4 -10 -137 -10 -365 0 -228 4
-361 10 -365 6 -3 10 -46 10 -96 0 -53 4 -89 10 -89 6 0 10 -7 10 -15 0 -22
48 -68 64 -62 8 3 19 0 25 -6 12 -12 252 -16 323 -4 48 8 98 44 98 72 0 8 5
15 10 15 6 0 10 10 10 23 0 13 4 27 10 33 5 5 10 45 12 89 2 64 6 80 19 83 10
2 22 -9 32 -30 9 -18 34 -51 56 -73 23 -21 41 -44 41 -50 0 -6 9 -17 20 -25
11 -8 20 -22 20 -32 0 -10 7 -18 16 -18 9 0 32 -17 51 -37 19 -21 37 -38 41
-39 4 0 16 -5 27 -10 12 -5 417 -9 968 -9 l948 0 38 40 c41 44 50 72 58 180 5
77 14 95 37 76 12 -10 61 -11 208 -7 305 9 312 11 391 85 44 41 61 66 66 96 1
6 10 19 20 30 29 32 46 130 46 260 -1 116 -18 215 -38 215 -4 0 -7 9 -5 19 2
12 -19 42 -59 84 -48 49 -71 66 -100 72 -21 4 -47 12 -58 18 -11 6 -49 13 -85
16 -80 7 -855 8 -890 1 -71 -14 -118 -66 -119 -131 -1 -20 -4 -39 -8 -43 -4
-4 -7 -116 -8 -249 l0 -242 -165 -3 c-91 -1 -174 -1 -185 2 -19 5 -20 12 -17
242 1 130 -1 241 -6 248 -5 6 -10 33 -11 59 -2 38 -8 56 -32 82 -18 19 -42 35
-57 36 -15 2 -190 3 -390 3 -334 1 -365 0 -376 -16 -7 -10 -16 -15 -19 -12 -9
9 -37 -22 -37 -40 0 -9 -4 -16 -10 -16 -5 0 -10 -24 -10 -54 0 -30 -4 -58 -10
-61 -5 -3 -10 -31 -10 -61 0 -30 -2 -54 -4 -54 -12 0 -96 92 -96 105 0 8 -4
15 -10 15 -5 0 -12 11 -16 25 -4 16 -13 25 -25 25 -10 0 -19 7 -19 15 0 18
-89 107 -100 100 -4 -3 -10 1 -13 9 -7 17 -38 19 -314 20 -249 1 -279 -1 -305
-22 -16 -13 -19 -12 -27 9 -6 17 -5 29 5 40 8 9 12 18 9 21 -3 3 4 13 15 23
11 10 20 26 20 35 0 10 8 28 18 41 28 40 42 68 42 88 0 10 7 22 16 25 9 3 183
6 387 7 393 1 492 6 492 26 0 6 3 15 8 19 4 4 7 17 7 29 0 11 5 26 11 32 20
20 -9 184 -39 217 -10 12 -27 38 -36 59 -10 21 -24 41 -32 44 -8 3 -14 11 -14
18 0 16 -35 80 -60 110 -14 17 -51 87 -55 105 -6 23 -26 58 -39 69 -9 7 -16
19 -16 26 0 6 -8 19 -18 28 -10 9 -24 32 -32 52 -8 19 -17 35 -22 35 -4 0 -8
9 -8 20 0 11 -4 20 -10 20 -5 0 -10 9 -10 21 0 11 -4 17 -11 14 -5 -4 -18 1
-27 12 -45 48 -28 47 -971 50 -878 3 -911 4 -911 35 0 11 -42 72 -52 76 -5 2
-8 12 -8 22 0 10 -7 20 -15 24 -12 4 -28 30 -40 66 -10 31 -26 58 -39 69 -9 7
-16 19 -16 26 0 6 -9 20 -20 30 -11 10 -20 22 -20 27 0 6 -9 21 -20 35 -11 14
-20 33 -20 43 0 9 -9 25 -20 35 -11 10 -20 24 -20 31 0 7 -8 19 -17 26 -10 7
-18 18 -19 23 -3 23 -17 55 -25 55 -5 0 -9 7 -9 15 0 18 -47 65 -65 65 -8 0
-15 5 -15 11 0 7 -12 9 -30 7 -17 -3 -33 -1 -36 4 -3 4 -8 7 -12 6 -4 -1 -27
-3 -52 -5z m116 -58 c0 -5 5 -9 12 -7 6 1 12 -7 12 -18 0 -11 6 -20 13 -20 9
0 8 -3 -2 -9 -11 -7 -9 -10 8 -16 14 -4 20 -12 17 -21 -3 -7 -1 -16 5 -19 5
-4 7 -11 4 -16 -4 -5 1 -9 10 -9 11 0 15 -5 11 -15 -3 -9 1 -18 9 -21 8 -4 12
-10 9 -15 -3 -5 2 -12 10 -15 9 -3 16 -12 16 -19 0 -22 43 -95 52 -89 5 3 8 2
7 -3 -4 -24 3 -41 24 -51 13 -6 16 -11 7 -11 -10 -1 -7 -6 8 -17 12 -8 20 -20
17 -25 -4 -5 -1 -9 5 -9 6 0 8 -5 5 -10 -3 -6 0 -13 8 -16 13 -5 26 -28 31
-59 1 -5 8 -9 15 -7 8 1 11 -6 9 -20 -2 -14 2 -22 10 -20 6 1 12 -7 12 -19 0
-21 43 -92 51 -84 3 2 5 -5 6 -16 1 -10 9 -26 17 -35 9 -9 14 -20 11 -25 -4
-5 -2 -9 3 -9 4 0 18 -19 31 -42 12 -24 35 -65 49 -93 15 -27 29 -52 32 -55 3
-3 11 -16 19 -30 8 -14 44 -74 79 -135 36 -60 72 -123 82 -140 9 -16 38 -65
64 -108 25 -43 46 -82 46 -85 0 -4 9 -18 20 -32 27 -35 25 -64 -10 -115 -16
-24 -30 -48 -30 -54 0 -6 -4 -11 -10 -11 -5 0 -10 -5 -10 -11 0 -6 -7 -17 -15
-25 -12 -13 -61 -15 -310 -14 -276 0 -295 -1 -296 -17 0 -10 -3 -13 -6 -6 -2
7 -17 26 -32 42 -16 17 -47 61 -70 98 -23 37 -81 129 -127 203 -47 74 -87 143
-91 153 -3 9 -9 17 -14 17 -5 0 -9 5 -9 10 0 6 -15 34 -33 63 -38 60 -91 146
-120 197 -10 19 -28 47 -38 62 -11 14 -19 31 -19 37 0 6 -4 11 -10 11 -5 0
-10 6 -10 13 0 6 -9 23 -20 37 -19 25 -27 70 -12 70 4 0 15 17 25 38 9 20 29
57 43 82 35 59 54 93 90 160 16 30 31 57 34 60 3 3 14 23 26 45 11 22 31 58
44 80 70 121 85 150 102 193 7 17 16 32 20 32 5 0 8 5 8 11 0 5 -4 7 -10 4
-15 -9 -12 3 7 25 16 18 18 18 34 2 9 -9 16 -21 15 -27z m1851 -732 c-246 -2
-648 -2 -895 0 -246 1 -44 2 448 2 492 0 694 -1 447 -2z m459 -28 c9 -8 13
-18 11 -22 -3 -5 3 -23 13 -41 11 -21 20 -28 23 -20 3 7 6 1 6 -13 1 -15 14
-41 30 -58 16 -17 24 -31 18 -31 -7 -1 -2 -9 11 -19 15 -13 18 -21 10 -24 -8
-3 -6 -6 4 -6 11 -1 15 -6 12 -16 -4 -8 1 -17 10 -21 9 -3 14 -10 11 -14 -3
-5 2 -13 11 -18 9 -5 15 -12 15 -15 -3 -20 0 -28 8 -23 5 3 9 -6 9 -19 0 -28
20 -58 33 -49 5 3 9 -3 9 -13 0 -23 22 -73 33 -73 4 0 7 -7 7 -15 0 -9 7 -18
15 -21 8 -4 13 -10 10 -14 -3 -5 5 -16 17 -24 12 -9 17 -16 10 -16 -7 0 -10
-5 -7 -10 4 -6 11 -8 16 -4 6 3 9 0 7 -8 -5 -23 44 -111 54 -96 4 7 8 8 8 3 0
-35 -12 -35 -898 -35 -857 0 -912 2 -912 31 0 6 -13 30 -30 54 -16 24 -30 47
-30 50 0 4 -8 19 -19 33 -16 23 -42 67 -85 147 -6 11 -16 27 -22 35 -6 8 -23
35 -36 60 -53 95 -71 126 -99 167 -16 23 -29 44 -29 48 0 3 -16 29 -35 58 -19
28 -35 55 -35 59 0 5 405 8 901 8 785 0 902 -2 915 -15z m-526 -789 c0 -10
-46 -89 -62 -106 -10 -10 -18 -24 -18 -30 0 -5 -4 -10 -10 -10 -5 0 -10 -8
-10 -17 -1 -17 -1 -17 -11 0 -9 16 -39 17 -397 17 -289 0 -391 -3 -400 -12
-21 -21 -13 6 23 80 l35 72 417 3 c230 1 421 3 426 5 4 1 7 0 7 -2z"/>
<path d="M8325 2509 c-159 -5 -301 -9 -314 -9 -24 -2 -111 -84 -111 -105 0 -7
-9 -20 -20 -30 -11 -10 -17 -22 -14 -26 3 -5 0 -9 -5 -9 -6 0 -11 -8 -11 -19
0 -10 -8 -29 -18 -42 -10 -13 -31 -50 -46 -81 -15 -32 -32 -60 -37 -64 -6 -3
-14 -17 -20 -31 -10 -28 -29 -26 -44 4 -6 12 -16 27 -22 34 -6 8 -16 32 -23
54 -7 22 -18 47 -25 55 -6 8 -24 40 -39 71 -14 32 -33 62 -41 69 -8 7 -15 21
-15 32 0 20 -22 48 -38 48 -5 0 -16 8 -26 19 -10 10 -33 19 -56 21 -77 6 -365
5 -390 -1 -72 -17 -100 -41 -100 -86 0 -18 -4 -33 -10 -33 -5 0 -10 -15 -10
-34 0 -19 5 -38 10 -41 6 -3 10 -15 10 -27 0 -11 8 -32 18 -46 42 -64 44 -70
79 -149 7 -18 18 -35 24 -39 9 -5 31 -48 33 -65 1 -3 9 -13 19 -23 9 -10 17
-26 17 -37 0 -23 18 -58 43 -80 9 -9 17 -23 17 -32 0 -8 3 -17 8 -19 4 -1 20
-29 35 -60 16 -32 33 -60 38 -64 10 -6 24 -37 28 -59 1 -5 10 -19 20 -30 9
-11 33 -51 51 -90 19 -38 43 -77 52 -86 10 -9 18 -23 18 -32 0 -14 26 -28 60
-32 8 0 24 -5 35 -11 26 -12 404 -12 430 0 11 5 22 10 25 11 45 15 76 37 80
57 3 19 42 98 50 103 5 3 27 43 50 89 22 46 47 89 55 96 8 7 15 19 15 27 0 7
7 16 15 19 8 4 15 15 15 25 0 10 5 19 10 19 6 0 10 8 10 19 0 10 8 29 18 42
10 13 23 33 28 44 6 14 10 -6 12 -70 1 -49 5 -97 8 -105 3 -8 7 -76 10 -150 3
-74 9 -139 14 -144 6 -6 10 -20 10 -32 0 -17 8 -23 34 -28 19 -4 36 -12 39
-19 3 -9 103 -11 438 -9 238 2 438 6 443 9 14 9 167 4 284 -9 76 -9 122 -9
180 0 128 18 162 32 162 65 0 13 5 28 12 35 7 7 8 12 4 12 -5 0 -1 11 8 24 9
14 13 32 10 41 -10 26 6 145 20 145 14 0 56 -42 56 -56 0 -5 23 -32 50 -59 28
-27 50 -54 50 -60 0 -6 29 -40 65 -75 36 -35 65 -61 65 -56 0 5 7 2 17 -5 13
-11 70 -14 272 -14 141 0 265 4 276 9 11 5 22 10 25 11 3 2 15 6 27 10 14 4
32 27 47 59 24 50 24 58 26 311 1 261 6 299 36 274 7 -6 39 -9 71 -8 l58 3 6
-260 c3 -142 10 -274 14 -293 10 -42 63 -104 83 -96 8 3 21 0 29 -7 23 -18
344 -18 366 1 10 7 17 10 17 5 0 -4 14 5 30 21 17 16 30 35 30 42 0 7 4 13 10
13 6 0 11 107 12 287 l3 287 52 -3 c28 -1 61 2 71 8 37 20 44 -7 43 -170 -1
-84 3 -157 8 -163 5 -6 11 -29 14 -51 6 -54 13 -78 29 -106 21 -39 61 -80 86
-90 13 -5 21 -13 17 -18 -6 -10 25 -26 115 -57 48 -16 92 -19 360 -22 262 -3
374 2 517 21 13 2 26 7 30 10 11 11 101 8 105 -3 10 -30 396 -41 430 -12 8 6
18 9 21 6 9 -9 57 42 57 61 0 8 5 15 10 15 6 0 10 35 10 85 0 83 1 85 24 85
16 0 44 -21 87 -65 35 -36 69 -65 74 -65 6 0 37 -27 70 -60 32 -33 61 -57 64
-55 2 3 11 -1 19 -8 12 -9 162 -11 681 -9 366 1 669 6 674 11 4 4 30 6 56 3
30 -2 51 0 55 7 4 6 18 11 31 11 13 0 27 5 30 10 8 13 52 13 60 0 4 -6 14 -10
23 -8 10 1 24 -2 32 -7 18 -11 26 -13 110 -25 88 -13 668 -12 755 1 39 6 79
11 90 13 52 5 165 82 165 111 0 7 9 20 20 30 11 10 20 28 20 41 0 13 5 26 10
29 6 3 10 22 10 41 0 19 4 34 9 34 13 0 12 238 0 245 -5 4 -9 19 -9 35 0 16
-9 45 -20 65 -22 39 -28 133 -9 152 7 7 9 40 6 89 -8 119 -16 149 -48 180 -16
15 -29 33 -29 38 0 11 -45 36 -65 36 -7 0 -27 8 -45 17 -50 25 -111 28 -505
28 -360 0 -405 -3 -458 -24 -36 -14 -50 -14 -65 1 -16 16 -31 19 -142 28 -135
11 -768 10 -875 -1 -49 -5 -100 -11 -112 -12 -25 -2 -73 -44 -73 -64 0 -20
-45 -15 -65 7 -10 11 -28 20 -40 20 -12 0 -25 3 -29 7 -3 4 -14 8 -22 9 -9 1
-23 6 -32 9 -32 13 -88 15 -677 23 -619 9 -720 5 -760 -28 -46 -38 -50 -62
-52 -330 -2 -140 -5 -261 -8 -268 -3 -9 -35 -12 -130 -10 l-125 3 -3 250 c-2
138 -7 267 -11 288 -8 41 -51 91 -71 83 -7 -2 -17 0 -23 6 -14 14 -1812 11
-1849 -3 -14 -5 -28 -7 -33 -4 -10 6 -64 -21 -80 -40 -7 -8 -9 -15 -5 -15 4 0
2 -7 -5 -15 -6 -8 -14 -59 -17 -114 -7 -112 -13 -132 -37 -112 -9 8 -16 22
-16 32 0 12 -7 19 -20 19 -11 0 -20 6 -20 13 0 8 -9 22 -20 32 -11 10 -20 23
-20 29 0 6 -34 45 -75 86 -41 41 -75 71 -75 66 0 -5 -7 -2 -16 5 -9 7 -23 15
-33 17 -28 7 -802 20 -1131 19 -173 -1 -445 -4 -605 -8z"/>
<path d="M4560 1268 c-69 -5 -191 -9 -272 -9 -81 0 -150 -5 -153 -10 -8 -12
-92 -12 -100 1 -3 5 -103 9 -245 9 -142 0 -242 -4 -245 -9 -8 -13 -92 -13
-100 0 -9 14 -451 12 -478 -3 -43 -24 -76 -60 -82 -91 -3 -17 -10 -40 -14 -51
-8 -19 -19 -56 -42 -147 -6 -24 -15 -57 -20 -74 -5 -17 -9 -62 -9 -101 0 -57
4 -73 20 -88 11 -10 20 -23 20 -29 0 -28 56 -36 241 -36 115 0 190 4 194 10 3
6 28 10 55 10 27 0 52 -4 55 -10 8 -14 452 -14 460 0 3 6 31 10 61 10 30 0 54
-4 54 -10 0 -6 74 -10 203 -10 132 0 207 -4 214 -11 11 -11 209 -7 303 6 41 6
87 22 100 35 26 26 110 26 110 0 0 -5 9 -10 20 -10 11 0 20 -4 20 -10 0 -6 83
-10 230 -10 147 0 230 4 230 10 0 6 9 10 19 10 11 0 21 5 23 11 6 19 83 23
100 5 9 -9 26 -16 37 -16 11 0 23 -4 26 -10 8 -14 412 -14 420 0 8 13 135 13
135 1 0 -6 74 -12 168 -15 92 -4 222 -9 290 -12 81 -3 128 -2 136 6 8 6 69 10
161 9 95 -1 151 3 158 10 14 14 104 15 112 1 8 -13 282 -13 290 0 3 6 17 10
31 10 13 0 24 6 24 13 0 8 9 22 20 32 11 10 20 28 20 41 0 13 5 26 10 29 6 3
10 17 10 30 0 13 5 27 11 30 6 4 8 14 5 22 -3 8 -1 24 6 36 6 12 13 29 14 37
2 8 8 40 15 70 15 74 6 196 -17 221 -32 35 -75 48 -166 48 -48 0 -90 -5 -93
-10 -8 -12 -92 -12 -100 1 -4 7 -86 10 -224 9 -120 -1 -224 2 -230 6 -15 9
-186 9 -201 0 -15 -9 -400 -7 -414 3 -6 4 -96 4 -201 0 -104 -4 -319 -8 -477
-8 -183 0 -288 -4 -288 -10 0 -6 -8 -10 -18 -10 -10 0 -24 -9 -32 -20 -18 -25
-30 -25 -56 -2 -43 38 -60 41 -227 41 -91 0 -174 3 -184 8 -10 5 -74 5 -143 1z"/>
<path d="M9550 1267 c-91 -4 -173 -8 -183 -8 -9 0 -42 -13 -73 -30 -62 -32
-105 -37 -124 -14 -28 34 -69 43 -186 44 -72 0 -124 -5 -138 -12 -31 -18 -106
-89 -106 -102 0 -6 -13 -24 -30 -40 -16 -16 -30 -34 -30 -40 0 -6 -25 -35 -55
-65 -30 -30 -55 -59 -55 -66 0 -6 -9 -19 -20 -29 -11 -10 -20 -28 -20 -41 0
-13 -4 -26 -10 -29 -13 -8 -13 -98 -1 -111 5 -5 11 -20 13 -33 6 -43 50 -59
164 -60 88 -1 107 2 150 24 61 31 67 31 129 0 l49 -25 326 -1 c314 -1 326 -1
363 20 47 26 67 26 112 1 29 -16 54 -20 130 -20 52 0 97 4 100 10 8 13 122 13
130 0 3 -6 48 -10 100 -10 84 0 98 3 151 30 55 30 58 30 78 13 48 -41 60 -43
285 -43 136 0 222 4 226 10 3 6 15 10 26 10 11 0 28 7 36 16 12 11 26 14 52 9
20 -4 38 -11 39 -16 2 -5 14 -9 27 -9 13 0 27 -4 30 -10 8 -14 412 -14 420 0
8 13 102 13 110 0 4 -6 75 -10 180 -10 105 0 176 -4 180 -10 8 -13 242 -13
250 0 4 6 68 10 163 9 103 0 158 3 160 10 5 14 109 14 117 1 8 -13 285 -13
285 0 0 6 9 10 20 10 11 0 20 5 20 10 0 6 9 10 19 10 20 0 32 20 36 62 3 31
33 136 46 160 5 10 9 29 9 42 0 14 5 28 10 31 6 4 10 54 10 116 0 119 -6 134
-64 164 -29 15 -213 19 -221 4 -8 -12 -92 -12 -100 0 -3 6 -97 10 -220 10
-118 0 -221 3 -229 8 -8 4 -66 5 -128 0 -128 -8 -466 -10 -479 -1 -12 7 -317
7 -328 -1 -6 -3 -147 -6 -315 -6 -182 0 -308 -4 -311 -9 -4 -6 -16 -10 -29
-10 -13 0 -31 -9 -41 -20 -10 -11 -24 -20 -31 -20 -8 0 -19 9 -26 20 -8 12
-24 20 -40 20 -16 0 -28 4 -28 9 0 6 -83 10 -192 11 -106 1 -280 5 -386 8
-107 4 -196 4 -199 0 -6 -10 -166 -10 -178 0 -6 4 -84 4 -175 -1z"/>
<path d="M7845 1230 c-3 -5 -14 -10 -24 -10 -9 0 -29 -6 -44 -12 -21 -10 -27
-20 -27 -45 0 -17 -4 -35 -10 -38 -14 -9 -13 -81 2 -104 9 -15 7 -29 -16 -74
-14 -30 -33 -60 -41 -67 -11 -9 -15 -34 -15 -90 0 -75 1 -78 35 -108 33 -31
37 -32 124 -32 49 0 93 5 96 10 3 6 28 10 55 10 27 0 52 -4 55 -10 8 -13 162
-13 170 0 3 6 16 10 28 10 15 0 53 31 114 92 l91 93 -3 105 c-2 64 -7 106 -14
108 -6 2 -11 12 -11 22 0 9 -6 22 -13 28 -7 6 -19 27 -27 47 -9 22 -20 35 -32
35 -10 0 -18 5 -18 10 0 6 -11 10 -24 10 -14 0 -28 5 -31 10 -3 6 -35 10 -71
10 -36 0 -64 -4 -64 -10 0 -6 -31 -10 -74 -10 -41 0 -78 5 -81 10 -3 6 -33 10
-65 10 -32 0 -62 -4 -65 -10z"/>
</g>
</svg>
