<?xml version="1.0" standalone="no"?>
<!DOCTYPE svg PUBLIC "-//W3C//DTD SVG 20010904//EN"
 "http://www.w3.org/TR/2001/REC-SVG-20010904/DTD/svg10.dtd">
<svg version="1.0" xmlns="http://www.w3.org/2000/svg"
 width="1500px" height="270px" viewBox="100 350 1600 1"
 preserveAspectRatio="xMidYMid meet">
<title>Logo</title>
<desc>Created with Sketch.</desc>
<!--<g id="Logo" stroke="none" stroke-width="1" fill="none" fill-rule="evenodd">-->
<g transform="translate(0.000000,490.000000) scale(0.100000,-0.100000)"
fill="#000000" stroke="none" stroke-width="1" fill-rule="evenodd">
<path d="M1257 2733 c3 -10 15 -30 25 -45 10 -14 18 -28 18 -31 0 -3 25 -49
55 -102 30 -54 55 -101 55 -105 0 -5 4 -10 8 -12 5 -1 26 -34 47 -73 21 -38
51 -89 67 -112 15 -23 28 -46 28 -52 0 -6 3 -11 8 -11 8 0 24 24 62 95 15 28
44 82 65 120 21 39 58 108 83 155 24 47 57 108 73 137 l28 52 -299 1 c-278 0
-299 -1 -303 -17 -4 -17 -5 -17 -6 0 0 9 -5 17 -11 17 -5 0 -7 -8 -3 -17z"/>
<path d="M1970 2734 c-14 -7 -20 -14 -15 -14 6 0 2 -5 -7 -11 -10 -5 -18 -15
-18 -20 0 -6 -18 -37 -40 -69 -22 -32 -40 -62 -40 -65 0 -4 -13 -26 -30 -50
-16 -24 -30 -46 -30 -50 0 -4 -13 -26 -30 -50 -16 -24 -30 -46 -30 -49 0 -5
-44 -80 -89 -151 -13 -22 -37 -62 -51 -90 -15 -27 -57 -101 -93 -164 -37 -62
-67 -116 -67 -118 0 -3 -8 -17 -19 -31 -10 -15 -28 -44 -40 -64 -11 -21 -30
-54 -41 -73 -11 -19 -29 -52 -41 -72 -12 -21 -25 -42 -29 -48 -4 -5 -19 -30
-32 -55 -14 -25 -35 -62 -47 -83 -12 -21 -19 -42 -16 -48 7 -10 772 -13 822
-3 21 4 36 17 50 42 11 21 37 66 58 102 66 114 75 129 95 165 11 19 28 50 39
68 81 140 131 230 131 238 0 5 4 9 9 9 5 0 11 8 14 18 4 9 18 37 33 62 35 59
55 95 100 177 20 37 40 73 44 78 5 6 23 37 41 70 40 76 70 130 98 178 11 20
30 52 40 71 11 19 21 43 23 53 2 10 7 21 12 24 5 4 6 14 3 23 -6 14 -47 16
-394 15 -311 -1 -393 -4 -413 -15z"/>
<path d="M8516 2422 c-5 -8 -8 -358 -7 -745 l1 -178 145 2 c83 2 145 7 145 12
0 5 6 4 14 -2 15 -13 42 -6 69 18 17 14 19 14 28 -1 10 -18 54 -32 70 -22 7 4
6 10 -1 19 -8 9 -6 14 5 19 10 4 15 -1 15 -14 0 -22 16 -35 25 -20 5 8 11 8
20 0 20 -16 40 -3 24 16 -19 23 -3 45 26 38 20 -5 25 -3 25 14 0 11 6 22 14
25 11 4 13 -3 8 -35 -6 -46 5 -58 56 -58 22 0 32 5 32 15 0 17 16 20 25 5 8
-13 55 -13 55 -1 0 5 -12 11 -27 13 -31 3 -41 23 -18 32 9 3 24 -1 33 -11 16
-16 17 -15 20 6 3 18 6 20 18 10 16 -13 19 -39 3 -39 -5 0 -7 -5 -4 -11 5 -7
14 -4 26 7 17 15 18 19 4 34 -20 22 -19 30 5 30 11 0 20 -6 20 -12 0 -9 4 -8
10 2 8 12 13 13 30 3 23 -15 30 -16 30 -5 0 8 -49 32 -67 32 -16 0 -17 17 -2
22 6 2 11 23 12 46 2 41 7 49 21 35 4 -5 22 -8 39 -8 25 0 32 -4 33 -20 3 -56
5 -65 15 -65 13 0 8 72 -5 82 -6 4 -4 13 4 23 12 14 0 15 -131 13 -141 -3
-144 -4 -147 -25 -4 -29 5 -29 27 -1 21 25 41 17 41 -18 0 -16 -7 -27 -22 -33
-22 -8 -22 -9 10 -25 57 -30 33 -58 -35 -40 -19 5 -21 9 -12 27 10 17 9 19 -6
13 -12 -4 -16 -2 -12 8 8 19 -17 53 -27 37 -10 -15 -36 4 -36 26 0 13 3 13 15
3 18 -15 45 -6 45 15 0 22 -168 22 -177 0 -5 -14 -7 -14 -22 -1 -11 10 -43 16
-101 18 l-85 3 -2 120 c-2 66 -3 125 -3 130 -3 36 7 152 13 162 4 7 20 12 35
11 15 0 165 0 334 1 l306 2 5 22 c2 12 1 67 -2 122 l-6 100 -497 3 c-273 1
-499 -2 -502 -6z m604 -692 c0 -5 -4 -10 -10 -10 -5 0 -10 5 -10 10 0 6 5 10
10 10 6 0 10 -4 10 -10z m218 -10 c7 -11 19 -20 26 -20 8 0 18 -4 21 -10 9
-14 -23 -70 -40 -70 -18 0 -17 -3 -6 38 6 20 6 32 0 32 -5 0 -9 -4 -9 -10 0
-5 -4 -10 -10 -10 -5 0 -10 16 -10 35 0 39 9 44 28 15z m-348 -61 c0 -5 -4 -9
-10 -9 -5 0 -10 7 -10 16 0 8 5 12 10 9 6 -3 10 -10 10 -16z m110 -9 c0 -5 -4
-10 -10 -10 -5 0 -10 -9 -10 -21 0 -16 -5 -20 -26 -17 -28 3 -54 32 -41 44 4
4 16 -1 26 -10 19 -17 20 -17 33 3 14 22 28 28 28 11z m101 -33 c6 -22 4 -27
-10 -27 -13 0 -18 8 -18 30 0 37 18 34 28 -3z m-201 -7 c0 -5 -5 -10 -11 -10
-7 0 -18 -8 -25 -17 -16 -22 -28 -12 -19 16 7 22 55 31 55 11z m195 -70 c3 -5
1 -10 -4 -10 -6 0 -11 5 -11 10 0 6 2 10 4 10 3 0 8 -4 11 -10z"/>
<path d="M12077 2323 c-11 -172 -8 -528 5 -606 11 -69 14 -74 74 -134 34 -35
71 -63 81 -63 10 0 24 -5 29 -10 13 -13 421 -22 445 -9 10 5 20 6 23 1 2 -4
26 -7 53 -6 186 7 251 12 268 18 11 4 32 12 46 17 40 15 96 76 124 134 l25 54
0 318 c0 175 -3 335 -6 356 l-7 37 -153 0 -152 0 -4 -310 c-2 -263 -5 -312
-18 -320 -8 -5 -120 -10 -251 -10 -191 0 -239 3 -248 14 -8 10 -14 111 -18
320 l-6 306 -152 0 -152 0 -6 -107z m533 -557 c0 -3 -4 -8 -10 -11 -5 -3 -10
-1 -10 4 0 6 5 11 10 11 6 0 10 -2 10 -4z"/>
<path d="M14585 2288 c-3 -79 -5 -287 -3 -463 l3 -320 140 -1 c82 -1 145 2
153 8 8 7 12 7 12 -1 0 -18 46 -12 65 9 12 14 22 17 30 10 15 -13 25 -3 25 26
0 43 20 71 46 66 28 -5 32 -22 6 -22 -23 0 -45 -39 -40 -70 3 -22 8 -24 67
-24 41 0 66 5 69 12 2 8 -8 12 -27 12 -21 0 -31 5 -31 15 0 18 14 19 42 4 25
-13 35 -5 18 16 -8 10 -9 15 -1 15 6 0 11 -4 11 -10 0 -5 5 -10 10 -10 6 0 10
10 10 23 0 23 16 47 32 47 4 0 5 -7 2 -15 -4 -9 0 -15 7 -15 12 0 12 -2 0 -9
-10 -6 -12 -19 -7 -44 9 -46 49 -57 73 -20 14 21 19 23 27 11 12 -15 56 -22
56 -8 0 4 -7 10 -15 14 -8 3 -15 10 -15 15 0 6 6 8 14 5 8 -3 19 3 26 15 6 12
7 21 3 21 -4 0 4 10 16 21 l23 22 -28 22 c-29 23 -29 23 -37 3 -5 -15 -2 -24
10 -34 17 -12 17 -14 -2 -27 -24 -18 -38 -12 -30 13 3 10 1 21 -5 25 -6 4 -10
-4 -10 -19 0 -14 -4 -26 -10 -26 -12 0 -14 11 -11 63 2 21 -2 37 -8 37 -6 0
-11 -4 -11 -10 0 -5 -7 -10 -15 -10 -8 0 -15 5 -15 10 0 6 7 13 15 16 8 4 15
14 15 24 0 16 -15 17 -182 18 -99 1 -185 5 -190 10 -10 10 -13 400 -3 410 8 8
54 10 388 11 l307 2 0 109 c0 59 -3 115 -6 124 -5 14 -60 16 -509 16 l-503 0
-7 -142z m655 -568 c0 -5 -2 -10 -4 -10 -3 0 -8 5 -11 10 -3 6 -1 10 4 10 6 0
11 -4 11 -10z m-80 -9 c0 -6 -4 -13 -10 -16 -5 -3 -10 1 -10 9 0 9 5 16 10 16
6 0 10 -4 10 -9z m-60 -5 c0 -3 -4 -8 -10 -11 -5 -3 -10 -1 -10 4 0 6 5 11 10
11 6 0 10 -2 10 -4z m123 -28 c13 -8 -16 -38 -38 -38 -12 0 -15 -6 -10 -20 5
-16 2 -20 -19 -20 -14 0 -26 6 -26 13 0 14 35 48 48 46 25 -4 32 3 27 29 -3
15 -2 20 1 12 4 -8 12 -18 17 -22z m-166 -20 c-3 -8 -6 -5 -6 6 -1 11 2 17 5
13 3 -3 4 -12 1 -19z m67 6 c-8 -3 -10 -20 -7 -44 4 -26 2 -40 -6 -40 -6 0
-11 11 -11 24 0 14 -5 28 -11 31 -11 7 18 35 36 34 6 0 5 -3 -1 -5z m153 -25
c9 -9 8 -15 -2 -25 -17 -18 -31 -18 -16 -1 8 10 7 17 -1 25 -7 7 -8 12 -2 12
5 0 15 -5 21 -11z m-200 -115 c-9 -9 -28 6 -21 18 4 6 10 6 17 -1 6 -6 8 -13
4 -17z"/>
<path d="M2977 2413 c-4 -3 -7 -205 -7 -448 0 -342 3 -445 13 -453 14 -12 271
-11 283 1 9 9 11 50 13 350 0 135 5 236 10 233 5 -3 55 -63 112 -133 57 -71
109 -134 116 -141 7 -8 26 -30 41 -50 15 -21 32 -42 37 -48 6 -7 48 -59 95
-118 l85 -105 235 0 c146 1 240 5 248 11 9 8 12 93 12 362 0 193 -3 395 -7
449 l-6 98 -146 -3 -146 -3 -3 -292 c-1 -161 -6 -293 -10 -293 -4 1 -26 25
-50 54 -24 29 -53 63 -65 77 -12 13 -42 49 -67 79 -25 30 -47 57 -50 60 -4 3
-13 14 -21 26 -8 11 -32 42 -54 68 -22 27 -56 68 -75 91 -19 23 -52 63 -73 89
l-39 46 -237 0 c-131 0 -241 -3 -244 -7z"/>
<path d="M4327 2413 c-4 -3 -7 -210 -7 -459 l0 -452 23 -5 c12 -2 114 -2 227
0 113 2 236 4 274 3 41 0 75 5 84 12 12 10 16 10 19 1 5 -15 79 -18 88 -3 9
14 43 12 48 -2 3 -10 7 -10 19 -1 8 7 18 10 21 7 11 -11 91 -12 105 -2 21 18
15 85 -10 102 -12 9 -18 19 -14 23 5 5 11 2 13 -4 3 -7 9 -13 14 -13 13 0 11
38 -2 42 -9 3 -8 10 1 24 7 12 10 32 6 47 l-6 25 -132 -3 c-73 -1 -141 -6
-150 -10 -10 -4 -18 -3 -18 1 0 5 -62 10 -137 12 -75 2 -140 5 -143 8 -3 3 -7
152 -8 330 l-4 324 -152 0 c-84 0 -156 -3 -159 -7z m813 -693 c0 -5 -2 -10 -4
-10 -3 0 -8 5 -11 10 -3 6 -1 10 4 10 6 0 11 -4 11 -10z m-273 -32 c-3 -8 -6
-5 -6 6 -1 11 2 17 5 13 3 -3 4 -12 1 -19z m250 16 c-3 -3 -12 -4 -19 -1 -8 3
-5 6 6 6 11 1 17 -2 13 -5z m-112 -34 c3 -5 1 -10 -4 -10 -6 0 -11 5 -11 10 0
6 2 10 4 10 3 0 8 -4 11 -10z m95 -58 c0 -10 -41 -35 -47 -28 -7 7 20 35 35
36 6 0 12 -3 12 -8z m80 -62 c0 -13 -7 -20 -20 -20 -22 0 -23 1 -14 24 9 23
34 20 34 -4z m-80 -12 c0 -6 -6 -5 -15 2 -8 7 -15 14 -15 16 0 2 7 1 15 -2 8
-4 15 -11 15 -16z"/>
<path d="M5295 2358 c-3 -35 -5 -243 -3 -463 l3 -400 147 0 c135 0 148 2 162
20 13 16 15 59 16 233 0 116 3 212 6 212 4 0 40 -30 81 -67 135 -122 137 -123
158 -116 11 3 63 5 115 3 52 -1 100 -2 105 -1 87 5 132 14 141 26 6 8 14 12
17 9 7 -7 68 41 81 64 6 11 3 19 -10 29 -18 13 -16 15 20 17 29 2 46 74 46
196 0 143 -25 206 -98 252 -74 46 -93 48 -549 48 l-431 0 -7 -62z m764 -229
c15 -15 21 -28 17 -43 -3 -11 -6 -27 -6 -33 0 -7 -6 -13 -13 -13 -7 0 -18 -5
-25 -12 -11 -11 -38 -12 -349 -9 l-63 1 0 65 0 65 208 0 c198 0 209 -1 231
-21z m238 -251 c-3 -8 -6 -5 -6 6 -1 11 2 17 5 13 3 -3 4 -12 1 -19z"/>
<path d="M7070 2413 c0 -5 15 -37 34 -73 66 -129 123 -236 146 -275 13 -22 33
-58 44 -80 12 -22 23 -42 26 -45 5 -4 24 -40 93 -173 11 -21 26 -41 33 -44 8
-3 14 -14 14 -25 0 -11 8 -32 18 -46 10 -15 22 -35 25 -44 4 -10 12 -18 19
-18 7 0 14 -14 15 -31 1 -17 10 -37 20 -44 20 -15 123 -17 140 -3 9 7 13 7 13
0 0 -7 41 -11 120 -10 119 0 120 0 133 27 8 14 25 46 39 71 14 25 48 86 75
135 27 50 60 108 73 130 12 22 45 83 72 135 28 52 64 120 81 150 16 30 37 69
46 85 9 17 18 32 21 35 7 7 70 136 70 144 0 3 -76 6 -168 6 -151 0 -171 -2
-185 -18 -10 -10 -17 -22 -17 -25 0 -4 -11 -24 -24 -45 -12 -20 -41 -71 -63
-112 -22 -41 -57 -106 -77 -144 -20 -37 -60 -112 -88 -165 -28 -53 -53 -100
-55 -104 -6 -10 -25 16 -65 90 -16 32 -51 96 -76 143 -25 47 -59 112 -76 145
-17 33 -33 62 -36 65 -3 3 -12 19 -20 35 -8 17 -28 54 -44 83 l-29 52 -174 0
c-95 0 -173 -3 -173 -7z"/>
<path d="M9587 2413 c-4 -3 -7 -205 -7 -448 0 -342 3 -445 13 -452 19 -14 276
-10 286 5 4 6 8 137 10 289 1 153 5 280 8 283 5 5 49 -43 96 -104 12 -16 38
-47 58 -70 19 -23 44 -53 55 -67 24 -33 136 -172 144 -179 3 -3 17 -21 32 -40
14 -19 40 -49 56 -67 16 -17 32 -38 35 -47 6 -14 36 -16 246 -16 132 0 242 3
244 8 5 7 11 685 8 840 l-1 72 -150 0 -150 0 -2 -252 c-2 -219 -4 -294 -7
-331 -1 -10 -108 114 -261 304 -44 55 -139 170 -192 232 l-40 47 -237 0 c-131
0 -241 -3 -244 -7z"/>
<path d="M10937 2413 c-4 -3 -7 -55 -7 -114 0 -92 2 -108 17 -113 10 -4 96 -9
192 -12 96 -2 176 -6 178 -8 2 -2 4 -150 4 -329 1 -266 4 -327 15 -331 7 -3
16 -1 19 4 8 13 45 13 45 0 0 -6 46 -9 123 -7 l122 2 1 148 c1 81 -2 150 -7
153 -5 3 -6 11 -2 17 8 13 8 23 11 213 l2 131 177 7 c97 4 180 9 185 12 10 6
11 87 2 173 l-7 61 -473 0 c-362 0 -474 -3 -474 -12 0 -9 -3 -9 -12 0 -13 13
-100 17 -111 5z m583 -773 c0 -5 -5 -10 -11 -10 -5 0 -7 5 -4 10 3 6 8 10 11
10 2 0 4 -4 4 -10z"/>
<path d="M13296 2348 c-10 -113 -6 -647 5 -653 5 -4 5 -13 -1 -25 -5 -10 -10
-53 -10 -94 l0 -76 43 -1 c87 -2 272 3 279 7 4 3 8 98 7 212 0 114 0 220 0
235 l1 29 53 -50 c28 -27 72 -67 97 -88 25 -21 50 -43 56 -49 206 -187 215
-194 233 -188 13 4 13 3 2 -5 -10 -7 1 -21 48 -60 l61 -51 173 5 c94 3 174 8
177 11 5 5 -43 50 -124 116 -22 18 -62 52 -90 77 -28 25 -67 58 -86 74 -33 27
-33 29 -15 42 10 8 31 14 47 14 15 0 28 5 28 10 0 6 7 10 15 10 28 0 83 68 99
124 21 70 21 212 0 281 -16 56 -61 113 -104 131 -73 32 -103 34 -542 34 l-445
0 -7 -72z m793 -212 c23 -21 27 -53 8 -76 -30 -36 -54 -40 -267 -40 -161 0
-210 3 -211 13 -3 24 3 112 8 120 3 5 103 7 223 5 198 -3 220 -5 239 -22z"/>
<path d="M15795 2406 c-87 -32 -125 -101 -132 -243 -9 -164 25 -238 131 -284
47 -20 72 -22 341 -29 186 -4 298 -11 311 -18 47 -25 36 -77 -19 -87 -18 -4
-190 -7 -382 -9 l-349 -2 -8 -30 c-12 -42 1 -112 26 -138 24 -26 130 -71 145
-62 5 3 22 1 37 -5 23 -8 31 -7 40 6 7 10 13 12 16 5 2 -7 50 -10 143 -10 77
1 226 1 330 1 181 1 192 2 243 26 36 17 62 38 85 71 31 46 32 50 36 170 3 109
1 129 -19 178 -17 41 -33 62 -64 82 -74 50 -79 50 -370 52 -315 1 -349 6 -354
56 -5 52 6 54 408 57 l365 2 -3 65 c-4 75 -26 105 -98 140 -42 19 -61 20 -436
19 -265 -1 -403 -5 -423 -13z m-58 -458 c-3 -8 -6 -5 -6 6 -1 11 2 17 5 13 3
-3 4 -12 1 -19z m660 -244 c-3 -3 -12 -4 -19 -1 -8 3 -5 6 6 6 11 1 17 -2 13
-5z"/>
<path d="M8890 1966 l0 -115 234 1 c165 0 236 4 239 12 2 6 3 56 3 111 l-1
100 -237 3 -238 2 0 -114z m440 84 c0 -5 -4 -10 -10 -10 -5 0 -10 5 -10 10 0
6 5 10 10 10 6 0 10 -4 10 -10z m20 -91 c0 -5 -4 -9 -10 -9 -5 0 -10 7 -10 16
0 8 5 12 10 9 6 -3 10 -10 10 -16z m-20 -29 c0 -5 -2 -10 -4 -10 -3 0 -8 5
-11 10 -3 6 -1 10 4 10 6 0 11 -4 11 -10z m20 -30 c0 -5 -7 -10 -16 -10 -8 0
-12 5 -9 10 3 6 10 10 16 10 5 0 9 -4 9 -10z"/>
<path d="M14966 2027 c-8 -70 -7 -149 2 -164 5 -8 73 -11 242 -10 l235 2 1 55
c0 30 3 80 5 110 l4 55 -241 2 -241 3 -7 -53z m454 -57 c0 -5 -5 -10 -11 -10
-5 0 -7 5 -4 10 3 6 8 10 11 10 2 0 4 -4 4 -10z"/>
<path d="M15310 1725 c0 -30 11 -32 28 -5 9 15 19 19 36 14 13 -3 27 -1 30 5
5 7 -10 11 -43 11 -48 0 -51 -2 -51 -25z"/>
<path d="M15433 1743 c-21 -8 -15 -43 7 -43 11 0 20 -4 20 -10 0 -5 5 -10 10
-10 6 0 10 11 10 25 0 14 5 25 10 25 6 0 10 -25 10 -55 0 -30 -4 -55 -10 -55
-5 0 -10 -8 -10 -17 1 -17 1 -17 14 0 7 9 19 17 26 17 8 0 10 8 6 24 -9 36 9
74 39 82 48 12 24 24 -47 23 -40 0 -79 -3 -85 -6z"/>
<path d="M15567 1703 c-11 -10 -8 -51 4 -59 6 -3 18 1 27 9 14 15 13 15 -8 10
-20 -5 -21 -4 -11 15 6 11 11 23 11 26 0 8 -15 7 -23 -1z"/>
<path d="M9437 1684 c-10 -10 -9 -52 2 -59 5 -3 12 -1 15 3 7 12 -8 65 -17 56z"/>
<path d="M15330 1674 c0 -8 5 -12 10 -9 6 3 10 10 10 16 0 5 -4 9 -10 9 -5 0
-10 -7 -10 -16z"/>
<path d="M15442 1633 c-27 -30 -27 -33 -4 -33 19 0 47 45 34 54 -4 2 -17 -7
-30 -21z"/>
<path d="M15414 1550 c-1 -34 12 -39 32 -13 9 13 9 22 2 30 -18 22 -33 14 -34
-17z"/>
<path d="M15480 1546 c0 -9 5 -16 10 -16 6 0 10 4 10 9 0 6 -4 13 -10 16 -5 3
-10 -1 -10 -9z"/>
<path d="M15565 1530 c-3 -6 1 -7 9 -4 18 7 21 14 7 14 -6 0 -13 -4 -16 -10z"/>
<path d="M15185 1520 c-3 -5 1 -10 9 -10 9 0 16 5 16 10 0 6 -4 10 -9 10 -6 0
-13 -4 -16 -10z"/>
<path d="M3057 1173 c-3 -4 -15 -51 -27 -103 -13 -52 -27 -103 -31 -112 -5
-10 -9 -31 -9 -47 0 -17 -4 -33 -10 -36 -5 -3 -10 -22 -10 -41 l0 -34 59 0
c35 0 62 5 68 13 5 6 22 64 37 127 15 63 31 131 36 150 23 83 22 85 -47 88
-34 2 -63 -1 -66 -5z"/>
<path d="M3230 1133 c-6 -27 -15 -59 -20 -73 -4 -14 -13 -45 -20 -70 -6 -25
-15 -58 -20 -75 -15 -54 -21 -105 -13 -106 48 -7 94 -5 106 4 14 12 57 132 57
161 0 8 5 26 11 40 12 25 12 25 42 -32 17 -31 46 -84 66 -117 l36 -60 85 -3
c58 -2 91 1 102 10 17 13 37 74 65 198 24 108 30 134 38 153 6 15 0 17 -57 17
-63 0 -64 0 -76 -33 -7 -18 -12 -41 -12 -50 0 -10 -4 -25 -9 -35 -5 -9 -14
-36 -20 -59 -13 -48 -21 -53 -36 -23 -6 11 -32 61 -60 110 l-50 90 -101 0
-101 0 -13 -47z"/>
<path d="M3807 1148 c-3 -18 -17 -73 -31 -123 -14 -49 -26 -101 -26 -115 0
-15 -5 -31 -11 -37 -11 -11 -9 -64 4 -63 4 0 29 0 56 0 44 0 50 3 58 28 15 40
30 91 44 149 14 60 14 60 70 -43 18 -32 44 -77 58 -99 27 -40 27 -40 97 -43
111 -4 127 6 152 103 16 60 62 259 62 268 0 4 -28 7 -63 7 l-63 0 -17 -72
c-10 -40 -21 -88 -25 -107 -4 -19 -12 -36 -17 -38 -6 -2 -25 23 -43 54 -17 32
-45 81 -60 108 l-28 50 -106 3 -106 3 -5 -33z"/>
<path d="M4423 1155 c-36 -29 -63 -76 -63 -111 0 -13 -4 -26 -10 -29 -5 -3
-10 -21 -10 -40 0 -19 -4 -37 -10 -40 -14 -9 -12 -84 3 -99 26 -26 83 -36 215
-36 157 0 204 11 240 56 28 36 71 184 71 250 1 69 -16 74 -226 74 -175 0 -179
-1 -210 -25z m304 -89 c1 0 -3 -21 -8 -46 -6 -25 -13 -57 -16 -72 -5 -27 -8
-28 -67 -29 -33 -1 -79 -3 -101 -5 -68 -5 -82 1 -77 36 2 17 8 33 13 36 5 3 9
18 9 34 0 50 28 60 144 53 56 -3 102 -6 103 -7z"/>
<path d="M4910 1156 c0 -14 5 -28 10 -31 6 -3 10 -17 10 -30 0 -13 4 -34 9
-47 5 -13 14 -43 21 -68 7 -25 16 -53 21 -62 5 -10 9 -27 9 -37 0 -11 5 -23
10 -26 6 -3 10 -14 10 -25 0 -10 7 -21 16 -24 27 -10 118 -6 141 7 26 14 293
344 293 361 0 3 -33 6 -72 6 l-73 -1 -89 -114 c-49 -63 -92 -115 -96 -115 -11
0 -27 41 -52 135 l-23 90 -73 3 c-71 3 -72 2 -72 -22z"/>
<path d="M5485 1118 c-27 -33 -66 -80 -85 -103 -19 -24 -55 -69 -80 -100 -25
-31 -51 -63 -57 -70 -28 -30 -16 -44 35 -40 26 2 57 4 70 4 12 1 29 9 36 19 8
9 49 60 91 112 77 96 95 112 95 88 0 -7 3 -23 6 -35 5 -19 2 -23 -19 -23 -17
0 -36 -14 -62 -45 -42 -52 -41 -53 60 -57 65 -3 70 -5 75 -28 5 -20 12 -24 32
-22 15 1 29 -1 32 -6 3 -5 22 -6 43 -3 47 8 47 18 3 161 -4 14 -13 45 -20 70
-7 25 -16 54 -20 65 -5 11 -11 32 -14 48 -6 27 -7 27 -89 27 l-82 0 -50 -62z"/>
<path d="M5815 1158 c-17 -72 -16 -73 59 -76 l68 -3 -5 -37 c-3 -20 -10 -55
-16 -77 -15 -58 -31 -128 -34 -144 -1 -10 15 -15 61 -18 54 -4 63 -2 68 14 3
10 9 27 14 38 4 11 13 43 19 70 7 28 19 74 27 103 l15 52 75 0 c80 0 78 -1 89
63 l6 37 -220 0 c-221 0 -221 0 -226 -22z"/>
<path d="M6311 1158 c-19 -51 -31 -96 -31 -116 0 -11 -4 -24 -10 -27 -5 -3
-10 -16 -10 -27 0 -12 -4 -35 -9 -52 -39 -129 -37 -138 42 -134 58 3 62 5 65
28 2 14 8 29 13 35 5 5 9 21 9 36 0 15 4 30 9 33 5 3 11 20 14 38 3 18 11 56
16 83 6 28 14 67 17 88 l7 37 -62 0 c-55 0 -62 -3 -70 -22z"/>
<path d="M6535 1161 c-34 -20 -65 -62 -65 -86 0 -8 -4 -23 -9 -33 -5 -9 -17
-52 -26 -94 -16 -72 -16 -80 -1 -102 23 -36 74 -46 231 -46 124 1 145 3 185
23 53 26 63 44 96 173 30 119 30 135 1 162 -22 21 -32 22 -203 22 -157 0 -183
-2 -209 -19z m294 -97 c4 -4 -21 -121 -29 -133 -6 -10 -200 -22 -229 -14 -16
4 -18 10 -11 26 4 12 14 42 21 67 19 67 27 71 143 64 56 -4 103 -8 105 -10z"/>
<path d="M7021 1113 c-32 -108 -51 -186 -51 -208 0 -12 -5 -26 -11 -32 -6 -6
-9 -23 -7 -39 3 -26 6 -28 48 -29 51 -2 80 12 80 37 0 9 4 27 9 40 5 13 17 51
27 86 10 34 20 62 23 62 6 0 22 -27 79 -130 54 -100 54 -100 136 -99 113 2
117 4 134 79 8 36 18 74 22 85 5 11 11 34 15 50 3 17 10 48 16 70 6 22 13 53
16 68 l5 28 -63 -3 -64 -3 -18 -70 c-10 -38 -23 -88 -28 -110 l-11 -40 -24 30
c-13 17 -24 33 -24 36 0 4 -21 41 -46 83 l-46 76 -98 0 -99 0 -20 -67z"/>
<path d="M8935 1153 c-11 -15 -36 -46 -55 -69 -109 -130 -210 -263 -210 -275
0 -8 88 -4 135 7 11 2 58 54 105 114 47 60 90 108 95 106 6 -1 11 -17 13 -34
3 -28 0 -32 -21 -32 -16 0 -34 -13 -55 -39 -39 -49 -40 -61 -4 -63 40 -2 44
-2 85 5 31 5 37 3 37 -12 0 -30 27 -44 91 -48 48 -4 60 -1 65 12 6 15 -5 66
-26 120 -4 11 -13 40 -20 65 -52 187 -39 170 -134 170 -77 0 -82 -2 -101 -27z"/>
<path d="M9404 1161 c-18 -11 -36 -25 -40 -33 -15 -22 -34 -82 -34 -105 0 -12
-4 -25 -10 -28 -5 -3 -10 -21 -10 -39 0 -17 -5 -37 -11 -43 -18 -18 -6 -65 24
-87 26 -19 43 -21 165 -22 75 0 141 2 146 4 5 3 23 6 40 8 33 2 58 28 49 50
-3 8 0 21 7 29 11 13 5 15 -41 16 -132 3 -253 9 -257 14 -6 6 16 101 30 128 8
15 26 17 164 17 l154 0 11 28 c6 15 13 39 16 55 l6 27 -189 0 c-169 0 -192 -2
-220 -19z"/>
<path d="M9852 1139 c-7 -22 -10 -44 -7 -50 4 -5 38 -9 76 -9 68 0 70 -1 63
-22 -4 -13 -13 -52 -21 -88 -25 -118 -30 -136 -38 -150 -6 -10 -4 -12 8 -7 9
3 19 2 22 -3 4 -6 23 -10 44 -10 38 0 71 23 71 50 0 8 4 27 9 44 5 17 14 49
20 71 6 22 15 57 21 78 l12 37 72 0 72 0 12 33 c25 70 36 67 -206 67 l-217 0
-13 -41z"/>
<path d="M10352 1160 c-6 -11 -12 -29 -12 -39 0 -11 -4 -30 -9 -43 -11 -30
 -27 -89 -42 -158 -6 -30 -16 -65 -21 -77 -16 -33 -2 -43 61 -43 55 0 59 2 70
28 15 37 62 228 68 275 3 20 9 40 14 43 5 3 9 12 9 20 0 11 -15 14 -63 14 -51
0 -64 -3 -75 -20z"/>
<path d="M10550 1159 c0 -13 4 -36 10 -53 5 -17 17 -58 26 -91 39 -140 57
-191 72 -202 9 -7 43 -13 77 -13 57 0 63 2 96 38 20 20 51 57 70 82 18 25 42
54 52 65 10 11 43 53 75 95 31 41 60 77 65 78 4 2 7 8 7 13 0 5 -33 9 -74 9
-73 0 -75 -1 -97 -32 -13 -18 -36 -49 -53 -69 -17 -20 -49 -59 -70 -87 -35
-45 -41 -49 -52 -34 -6 9 -14 31 -17 47 -3 17 -11 48 -17 70 -6 22 -15 54 -19
70 -7 30 -8 30 -79 33 -69 3 -72 2 -72 -19z"/>
<path d="M11105 1098 c-167 -201 -225 -275 -225 -289 0 -8 111 -3 142 7 10 3
28 20 40 37 12 18 45 59 73 92 96 114 88 109 98 58 6 -31 5 -33 -21 -33 -20
-1 -35 -12 -61 -46 -19 -24 -31 -47 -28 -50 3 -4 37 -6 76 -5 67 1 71 0 85
-26 13 -26 19 -28 85 -30 39 -1 71 3 71 7 0 5 -6 29 -14 52 -7 24 -19 63 -26
88 -7 25 -16 56 -20 70 -4 14 -13 45 -20 70 -20 75 -19 75 -107 78 l-79 3 -69
-83z"/>
<path d="M11449 1153 c-5 -15 -9 -36 -7 -47 3 -19 11 -21 71 -24 37 -2 67 -6
67 -9 0 -11 -41 -189 -50 -219 -6 -17 -10 -35 -10 -40 0 -14 117 -15 128 -1
11 12 50 157 59 214 7 45 19 52 97 55 l68 3 14 40 c7 22 14 43 14 48 0 4 -99
7 -220 7 l-220 0 -11 -27z"/>
<path d="M11953 1168 c-6 -7 -13 -24 -16 -38 -3 -14 -11 -43 -17 -65 -6 -22
-16 -57 -21 -77 -5 -21 -14 -57 -20 -80 -6 -24 -11 -56 -12 -73 -2 -30 -1 -30
54 -33 37 -2 59 1 66 10 15 20 60 190 88 336 l7 32 -60 0 c-36 0 -64 -5 -69
-12z"/>
<path d="M12165 1158 c-45 -33 -48 -38 -76 -153 -37 -150 -34 -174 29 -193 22
-7 101 -12 181 -12 159 0 217 16 241 68 7 15 16 35 21 44 5 10 9 27 9 38 0 11
4 28 9 38 10 19 31 105 31 126 0 7 -11 25 -25 40 l-24 26 -183 0 c-172 -1
-185 -2 -213 -22z m303 -109 c2 -12 -1 -26 -7 -32 -6 -6 -11 -23 -11 -37 0
-50 -17 -58 -123 -63 -138 -7 -138 -7 -120 56 24 88 26 92 37 99 6 4 58 5 116
3 98 -5 105 -6 108 -26z"/>
<path d="M12673 1168 c-6 -7 -13 -26 -16 -43 -3 -16 -11 -48 -17 -70 -6 -22
 -16 -60 -22 -85 -5 -25 -14 -63 -19 -85 -17 -72 -18 -70 39 -75 62 -7 72 1 91
70 7 25 17 59 22 76 5 17 9 40 9 52 0 26 25 29 33 5 4 -10 18 -38 33 -63 15
 -25 35 -59 44 -76 44 -77 40 -74 110 -74 36 0 82 5 103 11 32 9 37 14 37 40 0
16 4 37 9 47 13 26 70 266 64 275 -2 4 -31 7 -63 7 -57 0 -60 -1 -65 -27 -9
 -44 -26 -106 -36 -131 -5 -13 -9 -34 -9 -48 0 -23 -2 -24 -15 -10 -8 8 -15 17
 -15 19 0 3 -17 34 -37 69 -21 35 -46 77 -55 93 -17 30 -17 30 -116 33 -71 2
 -102 -1 -109 -10z"/>
<path d="M7900 1152 c0 -5 16 -39 35 -78 19 -38 35 -73 35 -77 0 -9 -39 -53
-103 -118 -41 -40 -41 -59 -2 -59 38 0 68 18 94 56 13 18 29 34 36 34 11 0 85
73 85 83 0 2 -18 41 -40 85 l-41 82 -49 0 c-28 0 -50 -4 -50 -8z"/>
<path d="M8190 1150 c0 -6 16 -44 36 -85 l36 -75 -28 -29 c-130 -131 -136
-141 -84 -141 39 0 75 20 100 57 12 18 26 33 29 33 16 0 81 69 81 86 0 10 -16
51 -36 91 l-36 73 -49 0 c-27 0 -49 -5 -49 -10z"/>
</g>
</svg>
